<svg width="24" height="24" viewBox="0 0 24 24" fill="none" xmlns="http://www.w3.org/2000/svg">
<path d="M16.2801 12.531L8.78007 20.031C8.71038 20.1007 8.62766 20.156 8.53661 20.1937C8.44557 20.2314 8.34799 20.2508 8.24944 20.2508C8.15089 20.2508 8.05331 20.2314 7.96227 20.1937C7.87122 20.156 7.7885 20.1007 7.71882 20.031C7.64913 19.9614 7.59386 19.8786 7.55615 19.7876C7.51843 19.6965 7.49902 19.599 7.49902 19.5004C7.49902 19.4019 7.51843 19.3043 7.55615 19.2132C7.59386 19.1222 7.64913 19.0395 7.71882 18.9698L14.6891 12.0004L7.71882 5.03104C7.57808 4.89031 7.49902 4.69944 7.49902 4.50042C7.49902 4.30139 7.57808 4.11052 7.71882 3.96979C7.85955 3.82906 8.05042 3.75 8.24944 3.75C8.44846 3.75 8.63934 3.82906 8.78007 3.96979L16.2801 11.4698C16.3498 11.5394 16.4051 11.6222 16.4429 11.7132C16.4806 11.8043 16.5 11.9019 16.5 12.0004C16.5 12.099 16.4806 12.1966 16.4429 12.2876C16.4051 12.3787 16.3498 12.4614 16.2801 12.531Z" fill="black"/>
</svg>
