<svg width="40" height="40" viewBox="0 0 40 40" fill="none" xmlns="http://www.w3.org/2000/svg">
<path d="M28.9996 20.0004C28.9996 20.1993 28.9206 20.3901 28.7799 20.5307C28.6393 20.6714 28.4485 20.7504 28.2496 20.7504H13.5599L19.0302 26.2198C19.0999 26.2895 19.1552 26.3722 19.1929 26.4632C19.2306 26.5543 19.25 26.6519 19.25 26.7504C19.25 26.849 19.2306 26.9465 19.1929 27.0376C19.1552 27.1286 19.0999 27.2114 19.0302 27.281C18.9606 27.3507 18.8778 27.406 18.7868 27.4437C18.6957 27.4814 18.5982 27.5008 18.4996 27.5008C18.4011 27.5008 18.3035 27.4814 18.2124 27.4437C18.1214 27.406 18.0387 27.3507 17.969 27.281L11.219 20.531C11.1493 20.4614 11.0939 20.3787 11.0562 20.2876C11.0185 20.1966 10.999 20.099 10.999 20.0004C10.999 19.9019 11.0185 19.8043 11.0562 19.7132C11.0939 19.6222 11.1493 19.5394 11.219 19.4698L17.969 12.7198C18.1097 12.5791 18.3006 12.5 18.4996 12.5C18.6986 12.5 18.8895 12.5791 19.0302 12.7198C19.171 12.8605 19.25 13.0514 19.25 13.2504C19.25 13.4494 19.171 13.6403 19.0302 13.781L13.5599 19.2504H28.2496C28.4485 19.2504 28.6393 19.3294 28.7799 19.4701C28.9206 19.6107 28.9996 19.8015 28.9996 20.0004Z" fill="black"/>
</svg>
