<svg width="92" height="92" viewBox="0 0 92 92" fill="none" xmlns="http://www.w3.org/2000/svg">
<g clip-path="url(#clip0_721_11692)">
<path d="M67.5389 22.3077H61.0774V20.1538C61.0774 19.5826 60.8505 19.0348 60.4465 18.6308C60.0426 18.2269 59.4948 18 58.9235 18C58.3523 18 57.8044 18.2269 57.4005 18.6308C56.9966 19.0348 56.7697 19.5826 56.7697 20.1538V22.3077H35.2312V20.1538C35.2312 19.5826 35.0043 19.0348 34.6004 18.6308C34.1964 18.2269 33.6486 18 33.0774 18C32.5061 18 31.9583 18.2269 31.5544 18.6308C31.1504 19.0348 30.9235 19.5826 30.9235 20.1538V22.3077H24.462C23.3195 22.3077 22.2238 22.7615 21.416 23.5694C20.6081 24.3772 20.1543 25.4729 20.1543 26.6154V69.6923C20.1543 70.8348 20.6081 71.9305 21.416 72.7383C22.2238 73.5462 23.3195 74 24.462 74H67.5389C68.6814 74 69.7771 73.5462 70.5849 72.7383C71.3928 71.9305 71.8466 70.8348 71.8466 69.6923V26.6154C71.8466 25.4729 71.3928 24.3772 70.5849 23.5694C69.7771 22.7615 68.6814 22.3077 67.5389 22.3077ZM30.9235 26.6154V28.7692C30.9235 29.3405 31.1504 29.8883 31.5544 30.2922C31.9583 30.6962 32.5061 30.9231 33.0774 30.9231C33.6486 30.9231 34.1964 30.6962 34.6004 30.2922C35.0043 29.8883 35.2312 29.3405 35.2312 28.7692V26.6154H56.7697V28.7692C56.7697 29.3405 56.9966 29.8883 57.4005 30.2922C57.8044 30.6962 58.3523 30.9231 58.9235 30.9231C59.4948 30.9231 60.0426 30.6962 60.4465 30.2922C60.8505 29.8883 61.0774 29.3405 61.0774 28.7692V26.6154H67.5389V35.2308H24.462V26.6154H30.9235ZM67.5389 69.6923H24.462V39.5385H67.5389V69.6923ZM57.2166 46.63C57.4169 46.83 57.5757 47.0676 57.6841 47.3291C57.7925 47.5905 57.8483 47.8708 57.8483 48.1538C57.8483 48.4369 57.7925 48.7172 57.6841 48.9786C57.5757 49.2401 57.4169 49.4777 57.2166 49.6777L44.2935 62.6008C44.0935 62.801 43.8559 62.9599 43.5945 63.0683C43.333 63.1767 43.0527 63.2325 42.7697 63.2325C42.4866 63.2325 42.2064 63.1767 41.9449 63.0683C41.6834 62.9599 41.4459 62.801 41.2458 62.6008L34.7843 56.1392C34.3801 55.7351 34.1531 55.1869 34.1531 54.6154C34.1531 54.0438 34.3801 53.4957 34.7843 53.0915C35.1884 52.6874 35.7366 52.4603 36.3081 52.4603C36.8797 52.4603 37.4278 52.6874 37.832 53.0915L42.7697 58.0319L54.1689 46.63C54.3689 46.4297 54.6065 46.2709 54.868 46.1625C55.1294 46.0541 55.4097 45.9983 55.6928 45.9983C55.9758 45.9983 56.2561 46.0541 56.5176 46.1625C56.779 46.2709 57.0166 46.4297 57.2166 46.63Z" fill="black"/>
</g>
<defs>
<clipPath id="clip0_721_11692">
<rect width="56" height="56" fill="white" transform="translate(18 18)"/>
</clipPath>
</defs>
</svg>
