<svg width="40" height="40" viewBox="0 0 40 40" fill="none" xmlns="http://www.w3.org/2000/svg">
<path d="M29.75 27.1248H26.75V24.8748H29C29.114 24.8748 29.2264 24.8488 29.3288 24.7988C29.4313 24.7488 29.5209 24.6761 29.5911 24.5863C29.6612 24.4965 29.7099 24.3919 29.7336 24.2804C29.7572 24.1689 29.7551 24.0535 29.7275 23.9429L26.7275 11.9429C26.6869 11.7807 26.5932 11.6368 26.4614 11.534C26.3296 11.4311 26.1672 11.3752 26 11.3752C25.8328 11.3752 25.6704 11.4311 25.5386 11.534C25.4068 11.6368 25.3131 11.7807 25.2725 11.9429L22.2725 23.9429C22.2449 24.0535 22.2428 24.1689 22.2664 24.2804C22.2901 24.3919 22.3388 24.4965 22.4089 24.5863C22.4791 24.6761 22.5687 24.7488 22.6712 24.7988C22.7736 24.8488 22.886 24.8748 23 24.8748H25.25V27.1248H19.25V25.6248H20C20.1989 25.6248 20.3897 25.5458 20.5303 25.4051C20.671 25.2645 20.75 25.0737 20.75 24.8748C20.75 24.6759 20.671 24.4851 20.5303 24.3445C20.3897 24.2038 20.1989 24.1248 20 24.1248H19.25V22.6248H20C20.1989 22.6248 20.3897 22.5458 20.5303 22.4051C20.671 22.2645 20.75 22.0737 20.75 21.8748C20.75 21.6759 20.671 21.4851 20.5303 21.3445C20.3897 21.2038 20.1989 21.1248 20 21.1248H11.75C11.5511 21.1248 11.3603 21.2038 11.2197 21.3445C11.079 21.4851 11 21.6759 11 21.8748C11 22.0737 11.079 22.2645 11.2197 22.4051C11.3603 22.5458 11.5511 22.6248 11.75 22.6248H12.5V24.1248H11.75C11.5511 24.1248 11.3603 24.2038 11.2197 24.3445C11.079 24.4851 11 24.6759 11 24.8748C11 25.0737 11.079 25.2645 11.2197 25.4051C11.3603 25.5458 11.5511 25.6248 11.75 25.6248H12.5V27.1248H10.25C10.0511 27.1248 9.86032 27.2038 9.71967 27.3445C9.57902 27.4851 9.5 27.6759 9.5 27.8748C9.5 28.0737 9.57902 28.2645 9.71967 28.4051C9.86032 28.5458 10.0511 28.6248 10.25 28.6248H29.75C29.9489 28.6248 30.1397 28.5458 30.2803 28.4051C30.421 28.2645 30.5 28.0737 30.5 27.8748C30.5 27.6759 30.421 27.4851 30.2803 27.3445C30.1397 27.2038 29.9489 27.1248 29.75 27.1248ZM26 15.2185L28.0391 23.3748H23.9609L26 15.2185ZM14 22.6248H17.75V24.1248H14V22.6248ZM14 25.6248H17.75V27.1248H14V25.6248ZM18.875 18.1248C19.3942 18.1248 19.9017 17.9708 20.3334 17.6824C20.7651 17.394 21.1015 16.984 21.3002 16.5043C21.4989 16.0247 21.5508 15.4969 21.4496 14.9877C21.3483 14.4785 21.0983 14.0107 20.7312 13.6436C20.364 13.2765 19.8963 13.0265 19.3871 12.9252C18.8779 12.8239 18.3501 12.8759 17.8705 13.0746C17.3908 13.2733 16.9808 13.6097 16.6924 14.0414C16.404 14.4731 16.25 14.9806 16.25 15.4998C16.25 16.196 16.5266 16.8637 17.0188 17.3559C17.5111 17.8482 18.1788 18.1248 18.875 18.1248ZM18.875 14.3748C19.0975 14.3748 19.315 14.4408 19.5 14.5644C19.685 14.688 19.8292 14.8637 19.9144 15.0693C19.9995 15.2748 20.0218 15.501 19.9784 15.7193C19.935 15.9375 19.8278 16.138 19.6705 16.2953C19.5132 16.4526 19.3127 16.5598 19.0945 16.6032C18.8762 16.6466 18.65 16.6243 18.4445 16.5392C18.2389 16.454 18.0632 16.3098 17.9396 16.1248C17.816 15.9398 17.75 15.7223 17.75 15.4998C17.75 15.2014 17.8685 14.9153 18.0795 14.7043C18.2905 14.4933 18.5766 14.3748 18.875 14.3748Z" fill="#F57C00"/>
</svg>
