<svg width="40" height="40" viewBox="0 0 40 40" fill="none" xmlns="http://www.w3.org/2000/svg">
<path d="M29.9495 13.8931C29.8791 13.8088 29.7911 13.7411 29.6916 13.6946C29.5922 13.6481 29.4837 13.624 29.3739 13.624H14.2502L13.6802 10.49C13.6488 10.3171 13.5577 10.1608 13.4229 10.0483C13.288 9.93572 13.118 9.87405 12.9423 9.87402H10.6239C10.425 9.87402 10.2342 9.95304 10.0936 10.0937C9.95292 10.2343 9.8739 10.4251 9.8739 10.624C9.8739 10.8229 9.95292 11.0137 10.0936 11.1544C10.2342 11.295 10.425 11.374 10.6239 11.374H12.3114L14.7077 24.5262C14.7782 24.9163 14.9506 25.2808 15.2073 25.5828C14.853 25.9137 14.5973 26.3363 14.4685 26.8038C14.3397 27.2712 14.3428 27.7652 14.4776 28.2309C14.6124 28.6967 14.8736 29.116 15.2321 29.4423C15.5907 29.7687 16.0326 29.9894 16.5089 30.08C16.9852 30.1705 17.4773 30.1274 17.9306 29.9553C18.3839 29.7832 18.7807 29.489 19.077 29.1052C19.3733 28.7214 19.5575 28.2631 19.6092 27.781C19.6609 27.2989 19.578 26.8119 19.3698 26.374H23.628C23.4602 26.7253 23.3734 27.1097 23.3739 27.499C23.3739 28.0182 23.5279 28.5257 23.8163 28.9574C24.1047 29.3891 24.5147 29.7255 24.9944 29.9242C25.474 30.1229 26.0018 30.1749 26.511 30.0736C27.0202 29.9723 27.4879 29.7223 27.8551 29.3552C28.2222 28.9881 28.4722 28.5203 28.5735 28.0111C28.6747 27.5019 28.6228 26.9741 28.4241 26.4945C28.2254 26.0148 27.889 25.6049 27.4573 25.3164C27.0256 25.028 26.5181 24.874 25.9989 24.874H16.9211C16.7454 24.874 16.5754 24.8123 16.4406 24.6998C16.3057 24.5872 16.2147 24.4309 16.1833 24.2581L15.8861 22.624H26.7611C27.288 22.6239 27.7982 22.4389 28.2027 22.1013C28.6072 21.7636 28.8803 21.2946 28.9745 20.7762L30.1145 14.5081C30.1338 14.3997 30.129 14.2885 30.1005 14.1822C30.072 14.0759 30.0205 13.9772 29.9495 13.8931ZM18.1239 27.499C18.1239 27.7215 18.0579 27.939 17.9343 28.124C17.8107 28.309 17.635 28.4532 17.4294 28.5384C17.2239 28.6235 16.9977 28.6458 16.7794 28.6024C16.5612 28.559 16.3607 28.4519 16.2034 28.2945C16.0461 28.1372 15.9389 27.9367 15.8955 27.7185C15.8521 27.5003 15.8744 27.2741 15.9595 27.0685C16.0447 26.8629 16.1889 26.6872 16.3739 26.5636C16.5589 26.44 16.7764 26.374 16.9989 26.374C17.2973 26.374 17.5834 26.4925 17.7944 26.7035C18.0054 26.9145 18.1239 27.2007 18.1239 27.499ZM27.1239 27.499C27.1239 27.7215 27.0579 27.939 26.9343 28.124C26.8107 28.309 26.635 28.4532 26.4294 28.5384C26.2239 28.6235 25.9977 28.6458 25.7794 28.6024C25.5612 28.559 25.3607 28.4519 25.2034 28.2945C25.0461 28.1372 24.9389 27.9367 24.8955 27.7185C24.8521 27.5003 24.8744 27.2741 24.9595 27.0685C25.0447 26.8629 25.1889 26.6872 25.3739 26.5636C25.5589 26.44 25.7764 26.374 25.9989 26.374C26.2973 26.374 26.5834 26.4925 26.7944 26.7035C27.0054 26.9145 27.1239 27.2007 27.1239 27.499ZM27.4989 20.5081C27.4674 20.6814 27.376 20.8381 27.2405 20.9507C27.1051 21.0633 26.9344 21.1247 26.7583 21.124H15.6133L14.523 15.124H28.4748L27.4989 20.5081Z" fill="#F57C00"/>
</svg>
