<svg width="40" height="40" viewBox="0 0 40 40" fill="none" xmlns="http://www.w3.org/2000/svg">
<path d="M14.75 14V11C14.75 10.8011 14.829 10.6103 14.9697 10.4697C15.1103 10.329 15.3011 10.25 15.5 10.25C15.6989 10.25 15.8897 10.329 16.0303 10.4697C16.171 10.6103 16.25 10.8011 16.25 11V14C16.25 14.1989 16.171 14.3897 16.0303 14.5303C15.8897 14.671 15.6989 14.75 15.5 14.75C15.3011 14.75 15.1103 14.671 14.9697 14.5303C14.829 14.3897 14.75 14.1989 14.75 14ZM18.5 14.75C18.6989 14.75 18.8897 14.671 19.0303 14.5303C19.171 14.3897 19.25 14.1989 19.25 14V11C19.25 10.8011 19.171 10.6103 19.0303 10.4697C18.8897 10.329 18.6989 10.25 18.5 10.25C18.3011 10.25 18.1103 10.329 17.9697 10.4697C17.829 10.6103 17.75 10.8011 17.75 11V14C17.75 14.1989 17.829 14.3897 17.9697 14.5303C18.1103 14.671 18.3011 14.75 18.5 14.75ZM21.5 14.75C21.6989 14.75 21.8897 14.671 22.0303 14.5303C22.171 14.3897 22.25 14.1989 22.25 14V11C22.25 10.8011 22.171 10.6103 22.0303 10.4697C21.8897 10.329 21.6989 10.25 21.5 10.25C21.3011 10.25 21.1103 10.329 20.9697 10.4697C20.829 10.6103 20.75 10.8011 20.75 11V14C20.75 14.1989 20.829 14.3897 20.9697 14.5303C21.1103 14.671 21.3011 14.75 21.5 14.75ZM30.5 20V20.75C30.4997 21.704 30.1359 22.6219 29.4825 23.3171C28.8292 24.0122 27.9355 24.4322 26.9834 24.4916C26.4718 25.9387 25.6008 27.232 24.4522 28.25H26.75C26.9489 28.25 27.1397 28.329 27.2803 28.4697C27.421 28.6103 27.5 28.8011 27.5 29C27.5 29.1989 27.421 29.3897 27.2803 29.5303C27.1397 29.671 26.9489 29.75 26.75 29.75H10.25C10.0511 29.75 9.86032 29.671 9.71967 29.5303C9.57902 29.3897 9.5 29.1989 9.5 29C9.5 28.8011 9.57902 28.6103 9.71967 28.4697C9.86032 28.329 10.0511 28.25 10.25 28.25H12.5506C11.5937 27.4046 10.827 26.3658 10.3012 25.2023C9.77531 24.0387 9.50224 22.7769 9.5 21.5V17C9.5 16.8011 9.57902 16.6103 9.71967 16.4697C9.86032 16.329 10.0511 16.25 10.25 16.25H26.75C27.7446 16.25 28.6984 16.6451 29.4016 17.3483C30.1049 18.0516 30.5 19.0054 30.5 20ZM26 17.75H11V21.5C11.0029 22.9082 11.4009 24.2873 12.1486 25.4806C12.8964 26.6739 13.964 27.6334 15.23 28.25H21.77C23.036 27.6334 24.1036 26.6739 24.8514 25.4806C25.5992 24.2873 25.9971 22.9082 26 21.5V17.75ZM29 20C28.9999 19.5348 28.8555 19.0811 28.5869 18.7014C28.3183 18.3216 27.9386 18.0344 27.5 17.8794V21.5C27.4994 21.971 27.4618 22.4412 27.3875 22.9062C27.8528 22.7688 28.2613 22.4845 28.5519 22.0959C28.8425 21.7074 28.9997 21.2352 29 20.75V20Z" fill="#F57C00"/>
</svg>
