<svg width="40" height="40" viewBox="0 0 40 40" fill="none" xmlns="http://www.w3.org/2000/svg">
<path d="M28.2671 11.7346C27.3307 10.7983 26.0607 10.2722 24.7365 10.2722C23.4122 10.2722 22.1422 10.7983 21.2059 11.7346L11.6902 21.2493C10.7734 22.1897 10.2641 23.4534 10.2724 24.7667C10.2808 26.08 10.8063 27.3371 11.735 28.2658C12.6638 29.1944 13.9209 29.7197 15.2342 29.7279C16.5476 29.7361 17.8112 29.2265 18.7515 28.3096L28.268 18.7949C29.2028 17.8579 29.7277 16.5882 29.7276 15.2646C29.7274 13.941 29.2022 12.6715 28.2671 11.7346ZM17.6912 27.2493C17.0361 27.9045 16.1476 28.2726 15.2212 28.2727C14.2947 28.2728 13.4062 27.9048 12.751 27.2498C12.0958 26.5947 11.7277 25.7063 11.7276 24.7798C11.7275 23.8533 12.0955 22.9648 12.7505 22.3096L16.9777 18.0824L21.9184 23.0221L17.6912 27.2493ZM27.2068 17.7346L22.9777 21.9618L18.039 17.0221L22.2671 12.7949C22.9247 12.1525 23.8091 11.7952 24.7285 11.8006C25.6478 11.8059 26.528 12.1735 27.1781 12.8236C27.8282 13.4737 28.1958 14.3539 28.2011 15.2732C28.2065 16.1926 27.8492 17.077 27.2068 17.7346ZM25.7602 15.7415C25.83 15.8112 25.8853 15.8939 25.923 15.9849C25.9608 16.076 25.9802 16.1736 25.9802 16.2721C25.9802 16.3707 25.9608 16.4683 25.923 16.5593C25.8853 16.6504 25.83 16.7331 25.7602 16.8027L23.5102 19.0527C23.4405 19.1224 23.3578 19.1776 23.2668 19.2152C23.1758 19.2529 23.0782 19.2723 22.9797 19.2722C22.8812 19.2722 22.7837 19.2527 22.6927 19.215C22.6017 19.1772 22.5191 19.122 22.4494 19.0523C22.3798 18.9826 22.3246 18.8999 22.287 18.8089C22.2493 18.7178 22.2299 18.6203 22.23 18.5218C22.23 18.4233 22.2495 18.3258 22.2872 18.2348C22.3249 18.1438 22.3802 18.0611 22.4499 17.9915L24.6999 15.7415C24.8406 15.6009 25.0312 15.522 25.2301 15.522C25.4289 15.522 25.6196 15.6009 25.7602 15.7415Z" fill="#F57C00"/>
</svg>
