<svg width="92" height="92" viewBox="0 0 92 92" fill="none" xmlns="http://www.w3.org/2000/svg">
<path d="M46 18C38.5764 18.0082 31.4593 20.9608 26.21 26.21C20.9608 31.4593 18.0082 38.5764 18 46V69.52C18 70.7082 18.472 71.8477 19.3122 72.6878C20.1523 73.528 21.2918 74 22.48 74H46C53.4261 74 60.548 71.05 65.799 65.799C71.05 60.548 74 53.4261 74 46C74 38.5739 71.05 31.452 65.799 26.201C60.548 20.95 53.4261 18 46 18ZM46 69.52H22.48V46C22.48 41.3482 23.8594 36.8008 26.4438 32.933C29.0282 29.0651 32.7016 26.0505 36.9993 24.2704C41.297 22.4902 46.0261 22.0244 50.5885 22.9319C55.151 23.8395 59.3418 26.0795 62.6312 29.3688C65.9205 32.6582 68.1605 36.849 69.0681 41.4115C69.9756 45.9739 69.5098 50.703 67.7296 55.0007C65.9495 59.2984 62.9349 62.9718 59.067 65.5562C55.1992 68.1406 50.6518 69.52 46 69.52Z" fill="black"/>
</svg>
