<svg width="92" height="92" viewBox="0 0 92 92" fill="none" xmlns="http://www.w3.org/2000/svg">
<path d="M58.5 22.0059C53.3375 22.0059 48.8175 24.2259 46 27.9784C43.1825 24.2259 38.6625 22.0059 33.5 22.0059C29.3906 22.0105 25.4508 23.645 22.545 26.5508C19.6392 29.4566 18.0046 33.3964 18 37.5059C18 55.0059 43.9475 69.1709 45.0525 69.7559C45.3437 69.9125 45.6693 69.9945 46 69.9945C46.3307 69.9945 46.6563 69.9125 46.9475 69.7559C48.0525 69.1709 74 55.0059 74 37.5059C73.9954 33.3964 72.3609 29.4566 69.455 26.5508C66.5492 23.645 62.6094 22.0105 58.5 22.0059ZM46 65.7059C41.435 63.0459 22 50.9284 22 37.5059C22.004 34.4571 23.2168 31.5343 25.3727 29.3785C27.5285 27.2227 30.4512 26.0098 33.5 26.0059C38.3625 26.0059 42.445 28.5959 44.15 32.7559C44.3007 33.1227 44.557 33.4364 44.8864 33.6572C45.2158 33.878 45.6034 33.9959 46 33.9959C46.3966 33.9959 46.7842 33.878 47.1136 33.6572C47.443 33.4364 47.6993 33.1227 47.85 32.7559C49.555 28.5884 53.6375 26.0059 58.5 26.0059C61.5488 26.0098 64.4715 27.2227 66.6273 29.3785C68.7832 31.5343 69.996 34.4571 70 37.5059C70 50.9084 50.56 63.0434 46 65.7059Z" fill="black"/>
</svg>
