<svg width="92" height="92" viewBox="0 0 92 92" fill="none" xmlns="http://www.w3.org/2000/svg">
<path d="M69.741 42.0172L48.9413 21.2175C48.1612 20.4379 47.1035 20 46.0007 20C44.8979 20 43.8402 20.4379 43.0602 21.2175L22.2604 42.0172C21.8723 42.4025 21.5646 42.8611 21.3552 43.3663C21.1459 43.8716 21.0391 44.4134 21.041 44.9604V69.92C21.041 70.4717 21.2602 71.0007 21.6503 71.3908C22.0403 71.7809 22.5694 72 23.121 72H39.7608C40.3124 72 40.8415 71.7809 41.2316 71.3908C41.6216 71.0007 41.8408 70.4717 41.8408 69.92V55.3602H50.1607V69.92C50.1607 70.4717 50.3798 71.0007 50.7699 71.3908C51.1599 71.7809 51.689 72 52.2406 72H68.8804C69.4321 72 69.9611 71.7809 70.3512 71.3908C70.7413 71.0007 70.9604 70.4717 70.9604 69.92V44.9604C70.9623 44.4134 70.8555 43.8716 70.6462 43.3663C70.4369 42.8611 70.1292 42.4025 69.741 42.0172ZM66.8005 67.8401H54.3206V53.2802C54.3206 52.7286 54.1015 52.1996 53.7114 51.8095C53.3213 51.4194 52.7923 51.2003 52.2406 51.2003H39.7608C39.2092 51.2003 38.6801 51.4194 38.29 51.8095C37.9 52.1996 37.6808 52.7286 37.6808 53.2802V67.8401H25.201V44.9604L46.0007 24.1606L66.8005 44.9604V67.8401Z" fill="black"/>
</svg>
