<svg width="32" height="32" viewBox="0 0 32 32" fill="none" xmlns="http://www.w3.org/2000/svg">
<g clip-path="url(#clip0_1235_1518)">
<path d="M19.3642 7.94812C19.9972 7.94812 20.6185 7.76057 21.146 7.4089C21.6735 7.05723 22.0838 6.55317 22.33 5.96706C22.5761 5.38094 22.6348 4.73622 22.5175 4.10322C22.3886 3.48194 22.0838 2.90755 21.6384 2.45038C21.1929 2.00493 20.6185 1.68843 19.9972 1.57121C19.376 1.44226 18.7312 1.51259 18.1451 1.75876C17.559 2.00493 17.055 2.41521 16.7033 2.94271C16.3516 3.47021 16.1641 4.09149 16.1641 4.73622C16.1641 5.59195 16.504 6.4125 17.1018 7.01034C17.6997 7.60818 18.5202 7.94812 19.376 7.94812H19.3642Z" fill="#F57C00"/>
<path d="M29.0004 8.8146C29.0004 9.11938 28.8715 9.41244 28.637 9.63516L25.2258 12.7064C24.9328 12.976 24.5225 13.0581 24.1474 12.9291L19.5171 11.3583L17.4891 14.7578C15.9535 13.4918 13.9959 12.7298 11.8624 12.7298L13.8318 9.42416L10.4323 8.27538C10.0572 8.14644 9.63521 8.22849 9.34215 8.4981L6.72809 10.866C6.28264 11.2646 5.57931 11.2294 5.18075 10.7839C4.99319 10.5729 4.89941 10.3033 4.89941 10.0454C4.89941 9.74066 5.01664 9.44761 5.2628 9.22488L8.82637 6.00126C9.13115 5.73165 9.54143 5.64959 9.91655 5.77854L23.6316 10.4323C24.0067 10.5612 24.417 10.4674 24.7218 10.2096L27.16 7.99405C27.6172 7.58377 28.3088 7.61893 28.7191 8.0761C28.9066 8.2871 29.0004 8.55671 29.0004 8.8146Z" fill="#F57C00"/>
<path d="M18.3682 21.6152C18.3682 25.214 15.4493 28.1446 11.8623 28.1446C8.27529 28.1446 5.34473 25.214 5.34473 21.6152C5.34473 18.5206 7.4899 15.9299 10.3619 15.2501C10.8425 15.1328 11.3465 15.0742 11.8623 15.0742C12.9994 15.0742 14.0778 15.3673 15.0039 15.8831C15.1797 15.9886 15.3438 16.0941 15.5079 16.1996C16.3168 16.7505 16.9967 17.4773 17.489 18.333C18.0517 19.2942 18.3682 20.4196 18.3682 21.6152Z" fill="white"/>
<path d="M20.0676 18.3337C19.7746 17.5483 19.3526 16.8098 18.8251 16.1534C18.4382 15.6493 17.9811 15.1804 17.4887 14.7584C15.9531 13.4924 13.9955 12.7305 11.862 12.7305C6.97385 12.7305 3 16.716 3 21.616C3 26.5159 6.97385 30.4897 11.862 30.4897C14.945 30.4897 17.6646 28.8955 19.2353 26.4924C20.1731 25.0975 20.7124 23.4212 20.7124 21.616V21.5339C20.7006 20.4086 20.4779 19.3184 20.0676 18.3337ZM11.862 28.1453C8.2633 28.1453 5.34445 25.2147 5.34445 21.616C5.34445 18.5213 7.48963 15.9306 10.3616 15.2508C10.8422 15.1335 11.3463 15.0749 11.862 15.0749C12.9991 15.0749 14.0775 15.368 15.0036 15.8838C15.1794 15.9893 15.3436 16.0948 15.5077 16.2003C16.3165 16.7512 16.9964 17.478 17.4887 18.3337C18.0514 19.2949 18.3679 20.4203 18.3679 21.616C18.3679 25.2147 15.4491 28.1453 11.862 28.1453Z" fill="#FFC03D"/>
<path d="M11.862 23.8071C12.2957 23.8071 12.7177 23.6782 13.0811 23.432C13.4445 23.1858 13.7258 22.8459 13.8899 22.4473C14.0541 22.0488 14.1009 21.6033 14.0189 21.1696C13.9368 20.7476 13.7258 20.349 13.421 20.0443C13.1163 19.7395 12.7177 19.5285 12.2957 19.4464C11.8737 19.3644 11.4283 19.3995 11.0297 19.5754C10.6311 19.7395 10.2912 20.0208 10.045 20.3842C9.79887 20.7476 9.66992 21.1696 9.66992 21.6033C9.66992 22.1894 9.90437 22.7521 10.3146 23.1624C10.7249 23.5727 11.2876 23.8071 11.862 23.8071Z" fill="#F57C00"/>
<path d="M25.5069 18.0396L21.5682 24.2876H23.139C23.7485 24.2876 24.2409 24.7799 24.2409 25.3895C24.2409 25.9991 23.7485 26.4914 23.139 26.4914H19.2355C20.1733 25.0964 20.7125 23.4202 20.7125 21.6149V21.5329L22.7287 18.321H20.0678C19.7747 17.5473 19.3527 16.8088 18.8252 16.1523H24.4988C25.4483 16.1758 26.0109 17.2308 25.5069 18.0396Z" fill="#F57C00"/>
</g>
<defs>
<clipPath id="clip0_1235_1518">
<rect width="26" height="28.9775" fill="white" transform="translate(3 1.51172)"/>
</clipPath>
</defs>
</svg>
