<svg width="92" height="92" viewBox="0 0 92 92" fill="none" xmlns="http://www.w3.org/2000/svg">
<path d="M42 35C42 34.2089 42.2346 33.4355 42.6741 32.7777C43.1136 32.1199 43.7384 31.6072 44.4693 31.3045C45.2002 31.0017 46.0044 30.9225 46.7804 31.0769C47.5563 31.2312 48.269 31.6122 48.8284 32.1716C49.3878 32.731 49.7688 33.4437 49.9231 34.2196C50.0775 34.9956 49.9983 35.7998 49.6955 36.5307C49.3928 37.2616 48.8801 37.8864 48.2223 38.3259C47.5645 38.7654 46.7911 39 46 39C44.9391 39 43.9217 38.5786 43.1716 37.8284C42.4214 37.0783 42 36.0609 42 35ZM30 35C30 30.7565 31.6857 26.6869 34.6863 23.6863C37.6869 20.6857 41.7565 19 46 19C50.2435 19 54.3131 20.6857 57.3137 23.6863C60.3143 26.6869 62 30.7565 62 35C62 49.9875 47.605 58.385 47 58.7375C46.6978 58.9103 46.3556 59.0011 46.0075 59.0011C45.6594 59.0011 45.3172 58.9103 45.015 58.7375C44.395 58.385 30 50 30 35ZM34 35C34 45.55 42.96 52.5525 46 54.625C49.0375 52.555 58 45.55 58 35C58 31.8174 56.7357 28.7652 54.4853 26.5147C52.2348 24.2643 49.1826 23 46 23C42.8174 23 39.7652 24.2643 37.5147 26.5147C35.2643 28.7652 34 31.8174 34 35ZM64.6925 51.9075C64.2003 51.7449 63.6641 51.7797 63.1971 52.0048C62.73 52.2298 62.3686 52.6273 62.189 53.1136C62.0094 53.5999 62.0256 54.137 62.2343 54.6116C62.4429 55.0861 62.8277 55.4611 63.3075 55.6575C67.435 57.185 70 59.23 70 61C70 64.34 60.87 69 46 69C31.13 69 22 64.34 22 61C22 59.23 24.565 57.185 28.6925 55.66C29.1723 55.4636 29.5571 55.0886 29.7657 54.6141C29.9744 54.1395 29.9906 53.6024 29.811 53.1161C29.6314 52.6298 29.27 52.2323 28.8029 52.0073C28.3359 51.7822 27.7997 51.7474 27.3075 51.91C21.305 54.1225 18 57.3525 18 61C18 68.795 32.4275 73 46 73C59.5725 73 74 68.795 74 61C74 57.3525 70.695 54.1225 64.6925 51.9075Z" fill="black"/>
</svg>
