<svg width="92" height="92" viewBox="0 0 92 92" fill="none" xmlns="http://www.w3.org/2000/svg">
<path d="M74 46C74 46.6188 73.7542 47.2123 73.3166 47.6499C72.879 48.0875 72.2855 48.3333 71.6667 48.3333H48.3333V71.6667C48.3333 72.2855 48.0875 72.879 47.6499 73.3166C47.2123 73.7542 46.6188 74 46 74C45.3812 74 44.7877 73.7542 44.3501 73.3166C43.9125 72.879 43.6667 72.2855 43.6667 71.6667V48.3333H20.3333C19.7145 48.3333 19.121 48.0875 18.6834 47.6499C18.2458 47.2123 18 46.6188 18 46C18 45.3812 18.2458 44.7877 18.6834 44.3501C19.121 43.9125 19.7145 43.6667 20.3333 43.6667H43.6667V20.3333C43.6667 19.7145 43.9125 19.121 44.3501 18.6834C44.7877 18.2458 45.3812 18 46 18C46.6188 18 47.2123 18.2458 47.6499 18.6834C48.0875 19.121 48.3333 19.7145 48.3333 20.3333V43.6667H71.6667C72.2855 43.6667 72.879 43.9125 73.3166 44.3501C73.7542 44.7877 74 45.3812 74 46Z" fill="black"/>
</svg>
