<svg width="92" height="92" viewBox="0 0 92 92" fill="none" xmlns="http://www.w3.org/2000/svg">
<path d="M73.1318 30.136C72.863 29.9683 72.556 29.8717 72.2395 29.8554C71.9231 29.839 71.6078 29.9035 71.3232 30.0427C61.3045 34.9435 54.1493 32.6471 46.5857 30.2247C38.6511 27.6833 30.4247 25.0579 19.0595 30.6075C18.742 30.7598 18.474 30.9988 18.2865 31.297C18.099 31.5951 17.9997 31.9402 18 32.2924V60.2807C18 60.5975 18.0805 60.909 18.2341 61.1861C18.3877 61.4631 18.6092 61.6966 18.8779 61.8644C19.1465 62.0322 19.4535 62.1289 19.7698 62.1454C20.0861 62.1619 20.4015 62.0976 20.6861 61.9586C30.7048 57.0578 37.8599 59.3542 45.4352 61.7766C49.9253 63.2118 54.4994 64.6751 59.6709 64.6751C63.6592 64.6751 68.0093 63.8069 72.9521 61.3939C73.266 61.2406 73.5307 61.0023 73.7159 60.7061C73.9011 60.4099 73.9995 60.0676 73.9999 59.7183V31.73C74.0027 31.4124 73.9245 31.0993 73.7726 30.8204C73.6207 30.5415 73.4001 30.3059 73.1318 30.136ZM70.2753 58.5304C60.8004 62.7708 53.8809 60.5584 46.5741 58.2224C42.084 56.7871 37.5099 55.3239 32.3384 55.3239C28.705 55.3415 25.1086 56.0545 21.7433 57.4242V33.4803C31.2182 29.2399 38.1377 31.4523 45.4445 33.7883C52.7514 36.1244 60.273 38.5374 70.2753 34.5911V58.5304ZM46.0046 38.5374C44.5276 38.5374 43.0838 38.9754 41.8557 39.796C40.6276 40.6166 39.6704 41.7829 39.1052 43.1475C38.54 44.5121 38.3921 46.0136 38.6802 47.4622C38.9684 48.9109 39.6796 50.2415 40.724 51.2859C41.7684 52.3303 43.0991 53.0416 44.5477 53.3297C45.9963 53.6179 47.4979 53.47 48.8625 52.9048C50.2271 52.3395 51.3934 51.3824 52.214 50.1543C53.0345 48.9262 53.4725 47.4823 53.4725 46.0053C53.4725 44.0247 52.6857 42.1252 51.2852 40.7247C49.8847 39.3242 47.9852 38.5374 46.0046 38.5374ZM46.0046 49.7393C45.2661 49.7393 44.5442 49.5203 43.9302 49.11C43.3161 48.6997 42.8375 48.1165 42.5549 47.4343C42.2723 46.752 42.1984 46.0012 42.3424 45.2769C42.4865 44.5526 42.8421 43.8872 43.3643 43.365C43.8865 42.8428 44.5519 42.4872 45.2762 42.3431C46.0005 42.199 46.7513 42.273 47.4336 42.5556C48.1158 42.8382 48.699 43.3168 49.1093 43.9309C49.5196 44.5449 49.7386 45.2668 49.7386 46.0053C49.7386 46.9956 49.3452 47.9454 48.6449 48.6456C47.9447 49.3459 46.9949 49.7393 46.0046 49.7393ZM29.2019 38.5374V49.7393C29.2019 50.2344 29.0052 50.7093 28.655 51.0594C28.3049 51.4096 27.83 51.6063 27.3349 51.6063C26.8397 51.6063 26.3649 51.4096 26.0147 51.0594C25.6646 50.7093 25.4679 50.2344 25.4679 49.7393V38.5374C25.4679 38.0423 25.6646 37.5674 26.0147 37.2173C26.3649 36.8672 26.8397 36.6705 27.3349 36.6705C27.83 36.6705 28.3049 36.8672 28.655 37.2173C29.0052 37.5674 29.2019 38.0423 29.2019 38.5374ZM62.8074 53.4732V42.2714C62.8074 41.7762 63.0041 41.3014 63.3542 40.9512C63.7044 40.6011 64.1792 40.4044 64.6744 40.4044C65.1695 40.4044 65.6444 40.6011 65.9945 40.9512C66.3447 41.3014 66.5414 41.7762 66.5414 42.2714V53.4732C66.5414 53.9684 66.3447 54.4433 65.9945 54.7934C65.6444 55.1435 65.1695 55.3402 64.6744 55.3402C64.1792 55.3402 63.7044 55.1435 63.3542 54.7934C63.0041 54.4433 62.8074 53.9684 62.8074 53.4732Z" fill="black"/>
</svg>
