<svg width="92" height="92" viewBox="0 0 92 92" fill="none" xmlns="http://www.w3.org/2000/svg">
<path d="M73.6825 69.6481C69.5861 62.5661 63.2733 57.4879 55.9062 55.0806C59.5503 52.9113 62.3816 49.6057 63.9652 45.6715C65.5488 41.7373 65.7971 37.392 64.6721 33.303C63.5472 29.214 61.111 25.6073 57.7378 23.0368C54.3647 20.4663 50.241 19.0742 46 19.0742C41.759 19.0742 37.6353 20.4663 34.2622 23.0368C30.889 25.6073 28.4528 29.214 27.3279 33.303C26.2029 37.392 26.4512 41.7373 28.0348 45.6715C29.6184 49.6057 32.4497 52.9113 36.0938 55.0806C28.7267 57.4852 22.4139 62.5634 18.3175 69.6481C18.1673 69.8931 18.0676 70.1656 18.0244 70.4497C17.9813 70.7338 17.9954 71.0236 18.0661 71.3022C18.1367 71.5807 18.2624 71.8422 18.4358 72.0714C18.6092 72.3005 18.8267 72.4926 19.0755 72.6363C19.3243 72.7801 19.5994 72.8725 19.8845 72.9082C20.1696 72.9439 20.459 72.9221 20.7356 72.8441C21.0122 72.7662 21.2703 72.6336 21.4948 72.4543C21.7193 72.2749 21.9056 72.0524 22.0427 71.7999C27.1102 63.0422 36.0669 57.8134 46 57.8134C55.9331 57.8134 64.8898 63.0422 69.9573 71.7999C70.0944 72.0524 70.2807 72.2749 70.5052 72.4543C70.7297 72.6336 70.9878 72.7662 71.2644 72.8441C71.541 72.9221 71.8303 72.9439 72.1155 72.9082C72.4006 72.8725 72.6757 72.7801 72.9245 72.6363C73.1733 72.4926 73.3908 72.3005 73.5642 72.0714C73.7376 71.8422 73.8633 71.5807 73.9339 71.3022C74.0046 71.0236 74.0187 70.7338 73.9756 70.4497C73.9324 70.1656 73.8327 69.8931 73.6825 69.6481ZM30.9376 38.4475C30.9376 35.4684 31.821 32.5562 33.4761 30.0792C35.1312 27.6023 37.4836 25.6717 40.2359 24.5316C42.9882 23.3916 46.0167 23.0933 48.9385 23.6745C51.8603 24.2557 54.5442 25.6902 56.6507 27.7967C58.7572 29.9033 60.1918 32.5871 60.773 35.5089C61.3542 38.4308 61.0559 41.4593 59.9158 44.2116C58.7758 46.9639 56.8452 49.3163 54.3682 50.9714C51.8912 52.6265 48.9791 53.5098 46 53.5098C42.0065 53.5056 38.1778 51.9173 35.354 49.0935C32.5302 46.2696 30.9419 42.4409 30.9376 38.4475Z" fill="black"/>
</svg>
