<svg width="92" height="92" viewBox="0 0 92 92" fill="none" xmlns="http://www.w3.org/2000/svg">
<path d="M73.3695 70.3251L59.9037 56.862C63.8066 52.1763 65.7528 46.1663 65.3374 40.0822C64.9221 33.9981 62.1771 28.3083 57.6735 24.1966C53.1699 20.0848 47.2545 17.8676 41.1578 18.0061C35.0612 18.1447 29.2526 20.6284 24.9405 24.9405C20.6284 29.2526 18.1447 35.0612 18.0061 41.1578C17.8676 47.2545 20.0848 53.1699 24.1966 57.6735C28.3083 62.1771 33.9981 64.9221 40.0822 65.3374C46.1663 65.7528 52.1763 63.8066 56.862 59.9037L70.3251 73.3695C70.525 73.5694 70.7623 73.7279 71.0235 73.8361C71.2847 73.9443 71.5646 74 71.8473 74C72.13 74 72.4099 73.9443 72.6711 73.8361C72.9323 73.7279 73.1696 73.5694 73.3695 73.3695C73.5694 73.1696 73.7279 72.9323 73.8361 72.6711C73.9443 72.4099 74 72.13 74 71.8473C74 71.5646 73.9443 71.2847 73.8361 71.0235C73.7279 70.7623 73.5694 70.525 73.3695 70.3251ZM22.3625 41.7261C22.3625 37.8963 23.4981 34.1526 25.6258 30.9682C27.7535 27.7839 30.7777 25.302 34.316 23.8364C37.8542 22.3709 41.7476 21.9874 45.5037 22.7345C49.2599 23.4817 52.7102 25.3259 55.4182 28.0339C58.1263 30.742 59.9705 34.1923 60.7177 37.9484C61.4648 41.7046 61.0813 45.598 59.6158 49.1362C58.1502 52.6745 55.6683 55.6987 52.4839 57.8264C49.2996 59.9541 45.5559 61.0897 41.7261 61.0897C36.5923 61.084 31.6704 59.0421 28.0402 55.412C24.4101 51.7818 22.3682 46.8599 22.3625 41.7261Z" fill="black"/>
</svg>
