<svg width="92" height="92" viewBox="0 0 92 92" fill="none" xmlns="http://www.w3.org/2000/svg">
<path d="M73.4159 43.587L53.4155 23.5866C53.136 23.3067 52.7797 23.116 52.3917 23.0386C52.0038 22.9613 51.6016 23.0007 51.2361 23.1519C50.8705 23.3031 50.558 23.5593 50.3381 23.8881C50.1181 24.2169 50.0006 24.6035 50.0005 24.9991V35.0868C43.5153 35.6418 36.3527 38.8169 30.4601 43.8145C23.365 49.8346 18.9474 57.5922 18.0198 65.6574C17.9474 66.2844 18.0745 66.9183 18.3832 67.4689C18.6918 68.0195 19.1663 68.4587 19.739 68.724C20.3118 68.9894 20.9536 69.0673 21.5732 68.9467C22.1928 68.8261 22.7585 68.5132 23.1899 68.0524C25.94 65.1249 35.7252 55.8672 50.0005 55.0522V64.9999C50.0006 65.3955 50.1181 65.7821 50.3381 66.1109C50.558 66.4397 50.8705 66.6959 51.2361 66.8471C51.6016 66.9983 52.0038 67.0377 52.3917 66.9604C52.7797 66.883 53.136 66.6923 53.4155 66.4124L73.4159 46.412C73.7899 46.0371 74 45.5291 74 44.9995C74 44.4699 73.7899 43.9619 73.4159 43.587ZM54.0005 60.1723V52.9997C54.0005 52.4692 53.7898 51.9605 53.4147 51.5854C53.0397 51.2103 52.5309 50.9996 52.0005 50.9996C44.9804 50.9996 38.1427 52.8321 31.6776 56.4497C28.3849 58.3003 25.317 60.5251 22.5349 63.0798C23.985 57.1197 27.64 51.4521 33.0476 46.8645C38.8527 41.9419 45.9379 38.9994 52.0005 38.9994C52.5309 38.9994 53.0397 38.7887 53.4147 38.4136C53.7898 38.0385 54.0005 37.5298 54.0005 36.9993V29.8292L69.1733 44.9995L54.0005 60.1723Z" fill="black"/>
</svg>
